<svg xmlns="http://www.w3.org/2000/svg" width="960" height="540" viewBox="0 0 960 540">
<defs>
<linearGradient id="bg" x1="0" y1="0" x2="1" y2="1"><stop offset="0%" stop-color="#082f49"/><stop offset="100%" stop-color="#164e63"/></linearGradient>
<linearGradient id="accent" x1="0" y1="0" x2="1" y2="0"><stop offset="0%" stop-color="#06b6d4"/><stop offset="100%" stop-color="#facc15"/></linearGradient>
<filter id="softShadow" x="-20%" y="-20%" width="140%" height="140%"><feDropShadow dx="0" dy="18" stdDeviation="18" flood-color="#020617" flood-opacity="0.22"/></filter>
</defs>
<rect width="960" height="540" rx="34" fill="url(#bg)"/>
<circle cx="816" cy="82" r="190" fill="#06b6d4" opacity="0.08"/>
<circle cx="116" cy="474" r="160" fill="#facc15" opacity="0.10"/>
<path d="M520 392 C610 328 730 350 880 272" fill="none" stroke="#06b6d4" stroke-width="34" stroke-linecap="round" opacity="0.9"/>
<path d="M500 430 C630 392 760 430 912 352" fill="none" stroke="#facc15" stroke-width="12" stroke-linecap="round" opacity="0.92"/>
<rect x="54" y="54" width="852" height="432" rx="28" fill="#ffffff" opacity="0.07" stroke="#ffffff" stroke-opacity="0.18"/>
<text x="86" y="104" font-family="Segoe UI, Arial, sans-serif" font-size="18" font-weight="700" letter-spacing="4" fill="#a5f3fc">LOOP LAB</text>
<text x="86" y="178" font-family="Segoe UI, Arial, sans-serif" font-size="70" font-weight="800" letter-spacing="-4" fill="#ecfeff">Design</text>
<text x="86" y="252" font-family="Segoe UI, Arial, sans-serif" font-size="70" font-weight="800" letter-spacing="-4" fill="#ecfeff">Systems</text>
<rect x="88" y="276" width="238" height="8" rx="4" fill="url(#accent)"/>
<text x="88" y="320" font-family="Segoe UI, Arial, sans-serif" font-size="25" font-weight="650" fill="#ecfeff">Build. Judge. Improve.</text>
<text x="88" y="354" font-family="Segoe UI, Arial, sans-serif" font-size="17" fill="#a5f3fc">A hands-on workshop for experiment-driven product teams.</text>
<g filter="url(#softShadow)"><rect x="596" y="250" width="270" height="178" rx="22" fill="#ecfeff"/></g>
<text x="622" y="292" font-family="Segoe UI, Arial, sans-serif" font-size="18" font-weight="800" fill="#083344">Workshop Sprint</text>
<text x="622" y="324" font-family="Segoe UI, Arial, sans-serif" font-size="15" fill="#083344" opacity="0.76">Tue 14 Jul / 10:00</text>
<text x="622" y="352" font-family="Segoe UI, Arial, sans-serif" font-size="15" fill="#083344" opacity="0.76">Studio 3 + remote</text>
<rect x="622" y="378" width="112" height="34" rx="17" fill="#06b6d4"/>
<text x="644" y="400" font-family="Segoe UI, Arial, sans-serif" font-size="13" font-weight="800" fill="#083344">JOIN RUN</text>
<rect x="372" y="346" width="178" height="32" rx="16" fill="#ffffff" opacity="0.12"/>
<text x="388" y="368" font-family="Segoe UI, Arial, sans-serif" font-size="13" font-weight="800" fill="#facc15">01</text>
<text x="424" y="368" font-family="Segoe UI, Arial, sans-serif" font-size="13" font-weight="650" fill="#ecfeff">Frame goal</text>
<rect x="372" y="390" width="178" height="32" rx="16" fill="#ffffff" opacity="0.12"/>
<text x="388" y="412" font-family="Segoe UI, Arial, sans-serif" font-size="13" font-weight="800" fill="#facc15">02</text>
<text x="424" y="412" font-family="Segoe UI, Arial, sans-serif" font-size="13" font-weight="650" fill="#ecfeff">Run variants</text>
<rect x="372" y="434" width="178" height="32" rx="16" fill="#ffffff" opacity="0.12"/>
<text x="388" y="456" font-family="Segoe UI, Arial, sans-serif" font-size="13" font-weight="800" fill="#facc15">03</text>
<text x="424" y="456" font-family="Segoe UI, Arial, sans-serif" font-size="13" font-weight="650" fill="#ecfeff">Synthesize</text>
<text x="86" y="456" font-family="Segoe UI, Arial, sans-serif" font-size="12" font-weight="700" fill="#a5f3fc">VARIANT / SIGNAL RIBBON SYSTEM</text>
</svg>