<?xml version="1.0" encoding="UTF-8" standalone="no"?>
<svg
   xmlns:svg="http://www.w3.org/2000/svg"
   xmlns="http://www.w3.org/2000/svg"
   width="800.0"
   height="240.0"

>
    <g transform="scale(2.5506777203460285, -2.5506777203460285)   translate(112.38943400028526,-41.59061223275016)" stroke-width="0.39205266585554316"  fill="none">
       <!-- hidden lines -->
       <g  stroke="rgb(160,160,160)" fill="none" stroke-dasharray="0.39205266585554316,0.39205266585554316" >
			<path d="M33.97890082917663,-28.913738729856597 L39.26450762482633,-31.984100752575774 " />
			<path d="M33.97890082917663,-28.913738729856597 L33.97890082917663,33.7495589156393 " />
			<path d="M35.96100337754527,25.744374977143494 L65.03184075361861,8.857383852188029 " />
			<path d="M35.96100337754527,6.788727439380974 L35.96100337754527,25.74437497714349 " />
			<path d="M-31.996798280807994,20.908554791360793 L35.961003377545254,25.744374977143494 " />
			<path d="M-33.97890082917663,-33.7495589156393 L33.97890082917662,-28.913738729856597 " />

       </g>

       <!-- solid lines -->
       <g  stroke="rgb(0,0,0)" fill="none">
			<path d="M-33.97890082917663,-33.7495589156393 L-28.693294033526932,-36.81992093835847 " />
			<path d="M-33.97890082917663,-33.7495589156393 L-33.97890082917663,28.913738729856597 " />
			<path d="M-2.9259609047346515,10.875361846381441 L-33.97890082917663,28.913738729856597 " />
			<path d="M-2.9259609047346515,4.021563666405328 L-2.9259609047346515,10.875361846381441 " />
			<path d="M-31.996798280807994,20.908554791360793 L-2.9259609047346515,4.021563666405328 " />
			<path d="M-31.996798280807994,-27.068032468471998 L-31.996798280807994,20.908554791360793 " />
			<path d="M-31.996798280807994,-27.068032468472 L-28.693294033526932,-28.987008732671487 " />
			<path d="M-28.693294033526932,-36.81992093835847 L-28.693294033526932,-28.987008732671484 " />
			<path d="M-28.693294033526932,-28.987008732671484 L39.264507624826315,-24.151188546888783 " />
			<path d="M39.26450762482633,-31.98410075257577 L39.26450762482633,-24.151188546888783 " />
			<path d="M-28.693294033526932,-36.81992093835847 L39.264507624826315,-31.98410075257577 " />
			<path d="M65.03184075361861,15.711182032164142 L33.97890082917663,33.7495589156393 " />
			<path d="M65.03184075361861,8.857383852188029 L65.03184075361861,15.711182032164142 " />
			<path d="M35.96100337754527,-22.2322122826893 L35.96100337754527,6.788727439380974 " />
			<path d="M35.96100337754527,-22.2322122826893 L39.26450762482633,-24.151188546888786 " />
			<path d="M-31.996798280807994,-27.068032468472 L35.961003377545254,-22.2322122826893 " />
			<path d="M-2.9259609047346515,4.021563666405328 L65.0318407536186,8.857383852188029 " />
			<path d="M-2.9259609047346515,10.875361846381441 L65.0318407536186,15.711182032164142 " />
			<path d="M-33.97890082917663,28.913738729856597 L33.97890082917662,33.7495589156393 " />

       </g>
    </g>
    <g transform="translate(20,210.0)" stroke="rgb(0,0,255)">
        <line x1="30" y1="-30" x2="75" y2="-33" stroke-width="3" stroke="#000000" />
         <text x="80" y="-30" style="stroke:#000000">X </text>

        <line x1="30" y1="-30" x2="30" y2="-75" stroke-width="3" stroke="#000000" />
         <text x="25" y="-85" style="stroke:#000000">Y </text>

        <line x1="30" y1="-30" x2="58" y2="-15" stroke-width="3" stroke="#000000" />
         <text x="65" y="-5" style="stroke:#000000">Z </text>
        <!--
            <line x1="0" y1="0" x2="2.5506777203460285" y2="0" stroke-width="3" />
            <text x="0" y="20" style="stroke:#000000">1  mm </text>
        -->
    </g>
</svg>
