<svg xmlns="http://www.w3.org/2000/svg" width="760" height="560" viewBox="0 0 760 560" role="img">
<title>Baseline: 81.425572 km</title>
<rect width="760" height="560" fill="#f8fafc"/>
<text x="30" y="32" font-family="system-ui" font-size="19" font-weight="700" fill="#172554">Baseline</text>
<text x="730" y="32" text-anchor="end" font-family="system-ui" font-size="14" fill="#334155">81.425572 km</text>
<polyline points="363.1,293.1 91.9,136.4 159.7,449.8 566.4,84.1 634.2,397.5 295.3,58.0 464.7,502.0 58.0,293.1 702.0,214.7 227.5,240.8 498.6,240.8 295.3,371.4 532.5,345.3 363.1,293.1" fill="none" stroke="#2563eb" stroke-width="4" stroke-linejoin="round" stroke-linecap="round"/>
<circle cx="363.1" cy="293.1" r="9" fill="#dc2626" stroke="#fff" stroke-width="2"/>
<text x="373.1" y="284.1" font-family="system-ui" font-size="11" fill="#0f172a">DEPOT</text>
<circle cx="91.9" cy="136.4" r="7" fill="#f59e0b" stroke="#fff" stroke-width="2"/>
<text x="101.9" y="127.4" font-family="system-ui" font-size="11" fill="#0f172a">1. Amber Bakery</text>
<circle cx="159.7" cy="449.8" r="7" fill="#f59e0b" stroke="#fff" stroke-width="2"/>
<text x="169.7" y="440.8" font-family="system-ui" font-size="11" fill="#0f172a">2. Birch Library</text>
<circle cx="566.4" cy="84.1" r="7" fill="#f59e0b" stroke="#fff" stroke-width="2"/>
<text x="576.4" y="75.1" font-family="system-ui" font-size="11" fill="#0f172a">3. Cedar Clinic</text>
<circle cx="634.2" cy="397.5" r="7" fill="#f59e0b" stroke="#fff" stroke-width="2"/>
<text x="644.2" y="388.5" font-family="system-ui" font-size="11" fill="#0f172a">4. Dahlia School</text>
<circle cx="295.3" cy="58.0" r="7" fill="#f59e0b" stroke="#fff" stroke-width="2"/>
<text x="305.3" y="49.0" font-family="system-ui" font-size="11" fill="#0f172a">5. Elm Market</text>
<circle cx="464.7" cy="502.0" r="7" fill="#f59e0b" stroke="#fff" stroke-width="2"/>
<text x="474.7" y="493.0" font-family="system-ui" font-size="11" fill="#0f172a">6. Fossil Museum</text>
<circle cx="58.0" cy="293.1" r="7" fill="#f59e0b" stroke="#fff" stroke-width="2"/>
<text x="68.0" y="284.1" font-family="system-ui" font-size="11" fill="#0f172a">7. Garnet Hotel</text>
<circle cx="702.0" cy="214.7" r="7" fill="#f59e0b" stroke="#fff" stroke-width="2"/>
<text x="712.0" y="205.7" font-family="system-ui" font-size="11" fill="#0f172a">8. Harbor Cafe</text>
<circle cx="227.5" cy="240.8" r="7" fill="#f59e0b" stroke="#fff" stroke-width="2"/>
<text x="237.5" y="231.8" font-family="system-ui" font-size="11" fill="#0f172a">9. Indigo Pharmacy</text>
<circle cx="498.6" cy="240.8" r="7" fill="#f59e0b" stroke="#fff" stroke-width="2"/>
<text x="508.6" y="231.8" font-family="system-ui" font-size="11" fill="#0f172a">10. Juniper Park</text>
<circle cx="295.3" cy="371.4" r="7" fill="#f59e0b" stroke="#fff" stroke-width="2"/>
<text x="305.3" y="362.4" font-family="system-ui" font-size="11" fill="#0f172a">11. Kestrel Theater</text>
<circle cx="532.5" cy="345.3" r="7" fill="#f59e0b" stroke="#fff" stroke-width="2"/>
<text x="542.5" y="336.3" font-family="system-ui" font-size="11" fill="#0f172a">12. Linden Post</text>
</svg>