<svg xmlns="http://www.w3.org/2000/svg" width="960" height="540" viewBox="0 0 960 540">
<defs>
<linearGradient id="bg" x1="0" y1="0" x2="1" y2="1"><stop offset="0%" stop-color="#111827"/><stop offset="100%" stop-color="#0f766e"/></linearGradient>
<linearGradient id="accent" x1="0" y1="0" x2="1" y2="0"><stop offset="0%" stop-color="#2dd4bf"/><stop offset="100%" stop-color="#f59e0b"/></linearGradient>
<filter id="softShadow" x="-20%" y="-20%" width="140%" height="140%"><feDropShadow dx="0" dy="18" stdDeviation="18" flood-color="#020617" flood-opacity="0.22"/></filter>
</defs>
<rect width="960" height="540" rx="34" fill="url(#bg)"/>
<circle cx="816" cy="82" r="190" fill="#2dd4bf" opacity="0.08"/>
<circle cx="116" cy="474" r="160" fill="#f59e0b" opacity="0.10"/>
<ellipse cx="700" cy="172" rx="210" ry="58" fill="none" stroke="#f59e0b" stroke-width="3" opacity="0.28" transform="rotate(-18 700 172)"/>
<ellipse cx="700" cy="172" rx="138" ry="38" fill="none" stroke="#2dd4bf" stroke-width="8" opacity="0.28" transform="rotate(22 700 172)"/>
<circle cx="814" cy="124" r="12" fill="#f59e0b"/>
<circle cx="604" cy="214" r="8" fill="#2dd4bf"/>
<path d="M520 392 C610 328 730 350 880 272" fill="none" stroke="#2dd4bf" stroke-width="34" stroke-linecap="round" opacity="0.55"/>
<path d="M500 430 C630 392 760 430 912 352" fill="none" stroke="#f59e0b" stroke-width="12" stroke-linecap="round" opacity="0.92"/>
<rect x="54" y="54" width="852" height="432" rx="28" fill="#ffffff" opacity="0.07" stroke="#ffffff" stroke-opacity="0.18"/>
<text x="86" y="104" font-family="Segoe UI, Arial, sans-serif" font-size="18" font-weight="700" letter-spacing="4" fill="#ccfbf1">LOOP LAB</text>
<text x="86" y="178" font-family="Segoe UI, Arial, sans-serif" font-size="70" font-weight="800" letter-spacing="-4" fill="#f8fafc">Design</text>
<text x="86" y="252" font-family="Segoe UI, Arial, sans-serif" font-size="70" font-weight="800" letter-spacing="-4" fill="#f8fafc">Systems</text>
<rect x="88" y="276" width="238" height="8" rx="4" fill="url(#accent)"/>
<text x="88" y="320" font-family="Segoe UI, Arial, sans-serif" font-size="25" font-weight="650" fill="#f8fafc">Build. Judge. Improve.</text>
<text x="88" y="354" font-family="Segoe UI, Arial, sans-serif" font-size="17" fill="#ccfbf1">A hands-on workshop for experiment-driven product teams.</text>
<g filter="url(#softShadow)"><rect x="596" y="250" width="270" height="178" rx="22" fill="#f8fafc"/></g>
<text x="622" y="292" font-family="Segoe UI, Arial, sans-serif" font-size="18" font-weight="800" fill="#0f172a">Workshop Sprint</text>
<text x="622" y="324" font-family="Segoe UI, Arial, sans-serif" font-size="15" fill="#0f172a" opacity="0.76">Tue 14 Jul / 10:00</text>
<text x="622" y="352" font-family="Segoe UI, Arial, sans-serif" font-size="15" fill="#0f172a" opacity="0.76">Studio 3 + remote</text>
<rect x="622" y="378" width="112" height="34" rx="17" fill="#2dd4bf"/>
<text x="644" y="400" font-family="Segoe UI, Arial, sans-serif" font-size="13" font-weight="800" fill="#0f172a">JOIN RUN</text>
<rect x="372" y="346" width="178" height="32" rx="16" fill="#ffffff" opacity="0.12"/>
<text x="388" y="368" font-family="Segoe UI, Arial, sans-serif" font-size="13" font-weight="800" fill="#f59e0b">01</text>
<text x="424" y="368" font-family="Segoe UI, Arial, sans-serif" font-size="13" font-weight="650" fill="#f8fafc">Frame goal</text>
<rect x="372" y="390" width="178" height="32" rx="16" fill="#ffffff" opacity="0.12"/>
<text x="388" y="412" font-family="Segoe UI, Arial, sans-serif" font-size="13" font-weight="800" fill="#f59e0b">02</text>
<text x="424" y="412" font-family="Segoe UI, Arial, sans-serif" font-size="13" font-weight="650" fill="#f8fafc">Run variants</text>
<rect x="372" y="434" width="178" height="32" rx="16" fill="#ffffff" opacity="0.12"/>
<text x="388" y="456" font-family="Segoe UI, Arial, sans-serif" font-size="13" font-weight="800" fill="#f59e0b">03</text>
<text x="424" y="456" font-family="Segoe UI, Arial, sans-serif" font-size="13" font-weight="650" fill="#f8fafc">Synthesize</text>
<text x="86" y="456" font-family="Segoe UI, Arial, sans-serif" font-size="12" font-weight="700" fill="#ccfbf1">VARIANT / EDITORIAL PLUS SIGNAL SYNTHESIS</text>
</svg>