<svg xmlns="http://www.w3.org/2000/svg" width="960" height="540" viewBox="0 0 960 540">
<defs>
<linearGradient id="bg" x1="0" y1="0" x2="1" y2="1"><stop offset="0%" stop-color="#0b1020"/><stop offset="100%" stop-color="#134e4a"/></linearGradient>
<linearGradient id="accent" x1="0" y1="0" x2="1" y2="0"><stop offset="0%" stop-color="#14b8a6"/><stop offset="100%" stop-color="#f97316"/></linearGradient>
<filter id="softShadow" x="-20%" y="-20%" width="140%" height="140%"><feDropShadow dx="0" dy="18" stdDeviation="18" flood-color="#020617" flood-opacity="0.22"/></filter>
</defs>
<rect width="960" height="540" rx="34" fill="url(#bg)"/>
<circle cx="816" cy="82" r="190" fill="#14b8a6" opacity="0.08"/>
<circle cx="116" cy="474" r="160" fill="#f97316" opacity="0.10"/>
<ellipse cx="700" cy="172" rx="210" ry="58" fill="none" stroke="#f97316" stroke-width="3" opacity="0.28" transform="rotate(-18 700 172)"/>
<ellipse cx="700" cy="172" rx="138" ry="38" fill="none" stroke="#14b8a6" stroke-width="8" opacity="0.28" transform="rotate(22 700 172)"/>
<circle cx="814" cy="124" r="12" fill="#f97316"/>
<circle cx="604" cy="214" r="8" fill="#14b8a6"/>
<path d="M520 392 C610 328 730 350 880 272" fill="none" stroke="#14b8a6" stroke-width="34" stroke-linecap="round" opacity="0.9"/>
<path d="M500 430 C630 392 760 430 912 352" fill="none" stroke="#f97316" stroke-width="12" stroke-linecap="round" opacity="0.92"/>
<rect x="54" y="54" width="852" height="432" rx="28" fill="#ffffff" opacity="0.07" stroke="#ffffff" stroke-opacity="0.18"/>
<text x="86" y="104" font-family="Segoe UI, Arial, sans-serif" font-size="18" font-weight="700" letter-spacing="4" fill="#99f6e4">LOOP LAB</text>
<text x="86" y="178" font-family="Segoe UI, Arial, sans-serif" font-size="70" font-weight="800" letter-spacing="-4" fill="#fff7ed">Design</text>
<text x="86" y="252" font-family="Segoe UI, Arial, sans-serif" font-size="70" font-weight="800" letter-spacing="-4" fill="#fff7ed">Systems</text>
<rect x="88" y="276" width="238" height="8" rx="4" fill="url(#accent)"/>
<text x="88" y="320" font-family="Segoe UI, Arial, sans-serif" font-size="25" font-weight="650" fill="#fff7ed">Build. Judge. Improve.</text>
<text x="88" y="354" font-family="Segoe UI, Arial, sans-serif" font-size="17" fill="#99f6e4">A hands-on workshop for experiment-driven product teams.</text>
<g filter="url(#softShadow)"><rect x="596" y="250" width="270" height="178" rx="22" fill="#fff7ed"/></g>
<text x="622" y="292" font-family="Segoe UI, Arial, sans-serif" font-size="18" font-weight="800" fill="#111827">Workshop Sprint</text>
<text x="622" y="324" font-family="Segoe UI, Arial, sans-serif" font-size="15" fill="#111827" opacity="0.76">Tue 14 Jul / 10:00</text>
<text x="622" y="352" font-family="Segoe UI, Arial, sans-serif" font-size="15" fill="#111827" opacity="0.76">Studio 3 + remote</text>
<rect x="622" y="378" width="112" height="34" rx="17" fill="#14b8a6"/>
<text x="644" y="400" font-family="Segoe UI, Arial, sans-serif" font-size="13" font-weight="800" fill="#111827">JOIN RUN</text>
<rect x="372" y="326" width="178" height="32" rx="16" fill="#ffffff" opacity="0.16"/>
<text x="388" y="348" font-family="Segoe UI, Arial, sans-serif" font-size="13" font-weight="800" fill="#f97316">01</text>
<text x="424" y="348" font-family="Segoe UI, Arial, sans-serif" font-size="13" font-weight="650" fill="#fff7ed">Frame goal</text>
<rect x="372" y="370" width="178" height="32" rx="16" fill="#ffffff" opacity="0.16"/>
<text x="388" y="392" font-family="Segoe UI, Arial, sans-serif" font-size="13" font-weight="800" fill="#f97316">02</text>
<text x="424" y="392" font-family="Segoe UI, Arial, sans-serif" font-size="13" font-weight="650" fill="#fff7ed">Run variants</text>
<rect x="372" y="414" width="178" height="32" rx="16" fill="#ffffff" opacity="0.16"/>
<text x="388" y="436" font-family="Segoe UI, Arial, sans-serif" font-size="13" font-weight="800" fill="#f97316">03</text>
<text x="424" y="436" font-family="Segoe UI, Arial, sans-serif" font-size="13" font-weight="650" fill="#fff7ed">Synthesize</text>
<text x="86" y="456" font-family="Segoe UI, Arial, sans-serif" font-size="12" font-weight="700" fill="#99f6e4">VARIANT / PRODUCTION POLISHED SYSTEM</text>
</svg>