<svg xmlns="http://www.w3.org/2000/svg" width="960" height="540" viewBox="0 0 960 540">
<defs>
<linearGradient id="bg" x1="0" y1="0" x2="1" y2="1"><stop offset="0%" stop-color="#120a2a"/><stop offset="100%" stop-color="#312e81"/></linearGradient>
<linearGradient id="accent" x1="0" y1="0" x2="1" y2="0"><stop offset="0%" stop-color="#a78bfa"/><stop offset="100%" stop-color="#34d399"/></linearGradient>
<filter id="softShadow" x="-20%" y="-20%" width="140%" height="140%"><feDropShadow dx="0" dy="18" stdDeviation="18" flood-color="#020617" flood-opacity="0.22"/></filter>
</defs>
<rect width="960" height="540" rx="34" fill="url(#bg)"/>
<circle cx="816" cy="82" r="190" fill="#a78bfa" opacity="0.08"/>
<circle cx="116" cy="474" r="160" fill="#34d399" opacity="0.10"/>
<ellipse cx="700" cy="172" rx="210" ry="58" fill="none" stroke="#34d399" stroke-width="3" opacity="0.55" transform="rotate(-18 700 172)"/>
<ellipse cx="700" cy="172" rx="138" ry="38" fill="none" stroke="#a78bfa" stroke-width="8" opacity="0.55" transform="rotate(22 700 172)"/>
<circle cx="814" cy="124" r="12" fill="#34d399"/>
<circle cx="604" cy="214" r="8" fill="#a78bfa"/>
<rect x="54" y="54" width="852" height="432" rx="28" fill="#ffffff" opacity="0.07" stroke="#ffffff" stroke-opacity="0.18"/>
<text x="86" y="104" font-family="Segoe UI, Arial, sans-serif" font-size="18" font-weight="700" letter-spacing="4" fill="#c4b5fd">LOOP LAB</text>
<text x="86" y="206" font-family="Segoe UI, Arial, sans-serif" font-size="70" font-weight="800" letter-spacing="-4" fill="#f5f3ff">Design</text>
<text x="86" y="280" font-family="Segoe UI, Arial, sans-serif" font-size="70" font-weight="800" letter-spacing="-4" fill="#f5f3ff">Systems</text>
<rect x="88" y="304" width="238" height="8" rx="4" fill="url(#accent)"/>
<text x="88" y="348" font-family="Segoe UI, Arial, sans-serif" font-size="25" font-weight="650" fill="#f5f3ff">Build. Judge. Improve.</text>
<text x="88" y="382" font-family="Segoe UI, Arial, sans-serif" font-size="17" fill="#c4b5fd">A hands-on workshop for experiment-driven product teams.</text>
<g filter="url(#softShadow)"><rect x="614" y="250" width="240" height="178" rx="22" fill="#faf5ff"/></g>
<text x="640" y="292" font-family="Segoe UI, Arial, sans-serif" font-size="18" font-weight="800" fill="#1e1b4b">Workshop Sprint</text>
<text x="640" y="324" font-family="Segoe UI, Arial, sans-serif" font-size="15" fill="#1e1b4b" opacity="0.76">Tue 14 Jul / 10:00</text>
<text x="640" y="352" font-family="Segoe UI, Arial, sans-serif" font-size="15" fill="#1e1b4b" opacity="0.76">Studio 3 + remote</text>
<rect x="640" y="378" width="112" height="34" rx="17" fill="#a78bfa"/>
<text x="662" y="400" font-family="Segoe UI, Arial, sans-serif" font-size="13" font-weight="800" fill="#1e1b4b">JOIN RUN</text>
<text x="86" y="456" font-family="Segoe UI, Arial, sans-serif" font-size="12" font-weight="700" fill="#c4b5fd">VARIANT / ORBITAL IDENTITY STUDY</text>
</svg>