<?xml version="1.0" encoding="UTF-8" standalone="no"?>
<svg
   xmlns:svg="http://www.w3.org/2000/svg"
   xmlns="http://www.w3.org/2000/svg"
   width="800.0"
   height="240.0"

>
    <g transform="scale(2.3913046987910804, -2.3913046987910804)   translate(120.44682725956696,-44.27291461093122)" stroke-width="0.4181817568064614"  fill="none">
       <!-- hidden lines -->
       <g  stroke="rgb(160,160,160)" fill="none" stroke-dasharray="0.4181817568064614,0.4181817568064614" >
			<path d="M36.81047589827468,-30.670474273537394 L42.75678354338059,-34.12463154909646 " />
			<path d="M-6.06428993965166,-34.690729547035325 L-1.6045592058222269,-34.37337884734333 " />
			<path d="M-1.6045592058222287,-37.281347503704616 L-6.064289939651662,-34.69072954703531 " />
			<path d="M-36.81047589827468,-35.90927947480199 L36.81047589827468,-30.670474273537398 " />
			<path d="M36.81047589827468,-30.670474273537394 L36.81047589827468,35.90927947480199 " />
			<path d="M-34.828373349906045,22.665290335041593 L-30.109081568075958,23.001111181276503 " />
			<path d="M-30.109081568075958,23.001111181276503 L-12.481582904584211,12.761453835508052 " />
			<path d="M-12.481582904584211,12.761453835508053 L-5.874574410022089,13.231603020236927 " />
			<path d="M-23.502073073513834,23.471260366005374 L-5.874574410022088,13.231603020236923 " />
			<path d="M-23.502073073513834,23.471260366005378 L27.46627817025111,27.098125505342402 " />
			<path d="M27.46627817025111,27.098125505342402 L45.09377683374285,16.858468159573953 " />
			<path d="M45.09377683374285,16.858468159573953 L51.700785328304974,17.328617344302828 " />
			<path d="M34.07328666481323,27.568274690071274 L51.700785328304974,17.32861734430282 " />
			<path d="M34.07328666481324,27.568274690071277 L38.79257844664332,27.904095536306187 " />
			<path d="M38.79257844664332,27.904095536306183 L69.18481752162909,10.249513905670927 " />
			<path d="M-30.109081568075958,19.923895671899473 L-30.109081568075958,23.0011111812765 " />
			<path d="M-23.502073073513834,-18.630642739562177 L-23.502073073513834,23.471260366005374 " />
			<path d="M27.46627817025111,7.2808576249543275 L27.46627817025111,27.098125505342402 " />
			<path d="M34.07328666481323,-14.533628415496278 L34.07328666481323,27.568274690071274 " />
			<path d="M38.79257844664332,-6.003363433755251 L38.79257844664332,27.90409553630619 " />
			<path d="M9.037443762204617,-21.866734530553128 L9.532969399296777,-22.15458097018305 " />
			<path d="M9.037443762204617,-22.189842159037717 L9.037443762204617,-21.86673453055313 " />
			<path d="M-6.064289939651662,-34.69072954703532 L-6.064289939651662,-22.94136123850484 " />
			<path d="M-6.064289939651662,-22.941361238504836 L9.037443762204617,-21.866734530553124 " />
			<path d="M-6.064289939651662,-22.941361238504836 L-5.568764302559503,-23.22920767813476 " />
			<path d="M-12.481582904584211,12.761453835508053 L-13.76997151121816,10.432651819841674 " />
			<path d="M-5.874574410022088,13.231603020236925 L-8.966707065943563,7.642478182637614 " />
			<path d="M45.09377683374285,16.858468159573953 L40.300302558017,8.194116039509842 " />
			<path d="M51.700785328304974,17.328617344302824 L46.90731105257913,8.664265224238715 " />

       </g>

       <!-- solid lines -->
       <g  stroke="rgb(0,0,0)" fill="none">
			<path d="M-36.81047589827468,-35.90927947480199 L-30.86416825316877,-39.36343675036106 " />
			<path d="M-36.81047589827468,-35.90927947480199 L-36.81047589827468,30.670474273537394 " />
			<path d="M-4.436134274920278,11.864506884382447 L-36.81047589827468,30.670474273537394 " />
			<path d="M-4.436134274920278,5.010708704406337 L-4.436134274920278,11.86450688438245 " />
			<path d="M-34.828373349906045,22.665290335041593 L-4.436134274920281,5.010708704406337 " />
			<path d="M-34.828373349906045,-27.269524976212946 L-34.828373349906045,22.665290335041597 " />
			<path d="M-34.828373349906045,-27.269524976212946 L-30.86416825316877,-29.572296493252328 " />
			<path d="M-30.86416825316877,-39.36343675036106 L-30.86416825316877,-29.572296493252328 " />
			<path d="M13.497174496034056,-36.20672079575291 L42.75678354338059,-34.12463154909646 " />
			<path d="M13.497174496034049,-36.20672079575291 L9.037443762204617,-33.6161028390836 " />
			<path d="M-1.6045592058222269,-34.37337884734333 L9.03744376220462,-33.61610283908361 " />
			<path d="M-30.86416825316877,-39.36343675036106 L-1.6045592058222304,-37.28134750370462 " />
			<path d="M-36.81047589827468,30.670474273537394 L36.81047589827468,35.90927947480199 " />
			<path d="M-4.436134274920278,11.864506884382447 L69.18481752162909,17.10331208564704 " />
			<path d="M69.18481752162909,17.103312085647044 L36.81047589827468,35.90927947480199 " />
			<path d="M69.18481752162909,10.249513905670927 L69.18481752162909,17.10331208564704 " />
			<path d="M-4.436134274920278,5.010708704406337 L69.18481752162909,10.24951390567093 " />
			<path d="M-30.109081568075958,-19.10079192429105 L-30.109081568075958,19.923895671899473 " />
			<path d="M-30.109081568075958,-19.10079192429105 L-23.502073073513834,-18.630642739562177 " />
			<path d="M27.46627817025111,-15.00377760022515 L27.46627817025111,7.2808576249543275 " />
			<path d="M27.46627817025111,-15.00377760022515 L34.07328666481323,-14.533628415496278 " />
			<path d="M38.79257844664332,-22.030719774948352 L38.79257844664332,-6.003363433755251 " />
			<path d="M9.532969399296782,-24.112809021604793 L38.79257844664332,-22.030719774948352 " />
			<path d="M9.532969399296777,-24.112809021604797 L9.532969399296777,-22.154580970183048 " />
			<path d="M9.532969399296778,-22.154580970183048 L-5.568764302559503,-23.229207678134763 " />
			<path d="M-5.568764302559503,-25.187435729556505 L-5.568764302559503,-23.229207678134756 " />
			<path d="M-34.828373349906045,-27.269524976212946 L-5.568764302559504,-25.187435729556505 " />
			<path d="M-1.6045592058222287,-27.490207246595887 L-5.568764302559503,-25.187435729556505 " />
			<path d="M-30.86416825316877,-29.572296493252328 L-1.6045592058222304,-27.490207246595887 " />
			<path d="M-1.6045592058222287,-37.28134750370462 L-1.6045592058222287,-27.490207246595887 " />
			<path d="M38.79257844664332,-22.030719774948356 L42.75678354338059,-24.333491291987738 " />
			<path d="M42.75678354338059,-34.12463154909646 L42.75678354338059,-24.33349129198773 " />
			<path d="M13.497174496034056,-26.415580538644175 L42.75678354338059,-24.333491291987734 " />
			<path d="M13.49717449603405,-36.206720795752915 L13.49717449603405,-26.41558053864418 " />
			<path d="M13.497174496034049,-26.41558053864418 L9.532969399296775,-24.112809021604797 " />
			<path d="M9.037443762204617,-33.61610283908361 L9.037443762204617,-22.189842159037717 " />
			<path d="M-13.76997151121816,10.432651819841674 L-30.109081568075954,-19.10079192429106 " />
			<path d="M-8.966707065943563,7.642478182637614 L-23.50207307351383,-18.630642739562187 " />
			<path d="M40.300302558017,8.194116039509842 L27.46627817025111,-15.00377760022516 " />
			<path d="M46.90731105257913,8.664265224238715 L34.07328666481323,-14.533628415496288 " />

       </g>
    </g>
    <g transform="translate(20,210.0)" stroke="rgb(0,0,255)">
        <line x1="30" y1="-30" x2="75" y2="-33" stroke-width="3" stroke="#000000" />
         <text x="80" y="-30" style="stroke:#000000">X </text>

        <line x1="30" y1="-30" x2="30" y2="-75" stroke-width="3" stroke="#000000" />
         <text x="25" y="-85" style="stroke:#000000">Y </text>

        <line x1="30" y1="-30" x2="58" y2="-15" stroke-width="3" stroke="#000000" />
         <text x="65" y="-5" style="stroke:#000000">Z </text>
        <!--
            <line x1="0" y1="0" x2="2.3913046987910804" y2="0" stroke-width="3" />
            <text x="0" y="20" style="stroke:#000000">1  mm </text>
        -->
    </g>
</svg>
