<svg xmlns="http://www.w3.org/2000/svg" width="760" height="420" viewBox="0 0 760 420">
<rect width="760" height="420" fill="#fbfbf7"/>
<text x="28" y="34" font-family="Segoe UI, Arial" font-size="22" font-weight="700" fill="#111827">Refined cross-run champion</text>
<text x="28" y="58" font-family="Segoe UI, Arial" font-size="13" fill="#475569">Footprint 5304.0 mm2; stability ratio 0.739; material proxy 119.66</text>
<text x="28" y="78" font-family="Segoe UI, Arial" font-size="13" fill="#475569">Dimensions: W 78 mm x D 68 mm x H 92 mm; lip 12 mm; cable 16 mm; braces yes</text>
<polygon points="313.4,290.1 520.1,290.1 446.6,321.3 239.9,321.3" fill="#dbeafe" stroke="#475569" stroke-width="2"/>
<polygon points="247.5,318.1 454.2,318.1 446.6,145.0 239.9,145.0" fill="#bfdbfe" stroke="#475569" stroke-width="2"/>
<polygon points="293.1,288.0 415.0,288.0 415.0,158.9 293.1,158.9" fill="#1f293326" stroke="#33415599" stroke-width="1"/>
<polygon points="313.4,290.1 395.5,290.1 395.5,265.5 313.4,265.5" fill="#93c5fd" stroke="#475569" stroke-width="2"/>
<polygon points="437.9,290.1 520.1,290.1 520.1,265.5 437.9,265.5" fill="#93c5fd" stroke="#475569" stroke-width="2"/>
<path d="M 429.7 296.8 L 417.8 277.3 L 355.2 271.2" fill="none" stroke="#2563eb" stroke-width="5" stroke-linecap="round"/>
<polygon points="317.8,298.3 271.3,318.1 271.3,208.7" fill="#60a5fa" stroke="#475569" stroke-width="2"/>
<polygon points="476.8,298.3 430.3,318.1 430.3,208.7" fill="#60a5fa" stroke="#475569" stroke-width="2"/>
<line x1="54" y1="352" x2="214" y2="352" stroke="#94a3b8" stroke-width="2"/>
<text x="54" y="370" font-family="Segoe UI, Arial" font-size="12" fill="#475569">W 78 / D 68 / H 92</text>
<text x="28" y="388" font-family="Segoe UI, Arial" font-size="13" fill="#475569">Included artifacts: CadQuery STEP, CadQuery SVG projection, concept SVG preview, metrics, panel notes</text>
</svg>