<?xml version="1.0" encoding="UTF-8" standalone="no"?>
<svg
   xmlns:svg="http://www.w3.org/2000/svg"
   xmlns="http://www.w3.org/2000/svg"
   width="800.0"
   height="240.0"

>
    <g transform="scale(2.8814794220128888, -2.8814794220128888)   translate(101.49997408458111,-36.639653471115494)" stroke-width="0.3470439498406826"  fill="none">
       <!-- hidden lines -->
       <g  stroke="rgb(160,160,160)" fill="none" stroke-dasharray="0.3470439498406826,0.3470439498406826" >
			<path d="M-32.091184116444595,-29.698774474301842 L32.091184116444595,-25.13161096550707 " />
			<path d="M32.091184116444595,-25.131610965507065 L37.37679091209429,-28.20197298822624 " />
			<path d="M32.091184116444595,-25.131610965507065 L32.091184116444595,29.698774474301842 " />
			<path d="M-30.109081568075958,17.126427027011264 L-25.38978978624587,17.462247873246174 " />
			<path d="M-25.38978978624587,17.462247873246174 L-10.061530078861743,8.558198007360565 " />
			<path d="M-10.061530078861747,8.558198007360566 L-3.4545215842996244,9.02834719208944 " />
			<path d="M-18.782781291683747,17.932397057975045 L-3.45452158429962,9.028347192089436 " />
			<path d="M-18.782781291683747,17.93239705797505 L22.74698638842102,20.887620504842253 " />
			<path d="M22.74698638842102,20.887620504842253 L38.07524609580515,11.983570638956644 " />
			<path d="M38.07524609580514,11.983570638956646 L44.682254590367265,12.45371982368552 " />
			<path d="M29.353994882983145,21.357769689571125 L44.68225459036727,12.453719823685516 " />
			<path d="M29.353994882983145,21.35776968957113 L34.07328666481323,21.693590535806038 " />
			<path d="M34.07328666481323,21.693590535806035 L60.501320643061725,6.341780422210157 " />
			<path d="M-25.38978978624587,14.385032363869145 L-25.38978978624587,17.46224787324617 " />
			<path d="M-18.782781291683747,-13.399251764772902 L-18.782781291683747,17.932397057975045 " />
			<path d="M22.74698638842102,3.6552136523308842 L22.74698638842102,20.887620504842253 " />
			<path d="M29.353994882983145,-9.97387913317682 L29.353994882983145,21.35776968957113 " />
			<path d="M34.07328666481323,-3.068830193256133 L34.07328666481323,21.69359053580604 " />
			<path d="M-10.061530078861747,8.558198007360566 L-11.566984157265544,6.355487395525872 " />
			<path d="M-3.4545215842996235,9.028347192089438 L-7.067611372468738,3.741841723686174 " />
			<path d="M38.07524609580514,11.983570638956646 L32.875792362463386,4.375970992796293 " />
			<path d="M44.682254590367265,12.453719823685518 L39.48280085702552,4.846120177525169 " />

       </g>

       <!-- solid lines -->
       <g  stroke="rgb(0,0,0)" fill="none">
			<path d="M-32.091184116444595,-29.698774474301842 L-26.805577320794896,-32.769136497021016 " />
			<path d="M-32.091184116444595,-29.698774474301842 L-32.091184116444595,25.131610965507065 " />
			<path d="M-3.6810475898274646,8.6284150933915 L-32.091184116444595,25.13161096550707 " />
			<path d="M-3.6810475898274646,1.7746169134153895 L-3.6810475898274646,8.628415093391503 " />
			<path d="M-30.109081568075958,17.126427027011264 L-3.6810475898274646,1.774616913415386 " />
			<path d="M-30.109081568075958,-22.03813400142367 L-30.109081568075958,17.126427027011264 " />
			<path d="M-30.109081568075958,-22.038134001423675 L-26.805577320794896,-23.95711026562316 " />
			<path d="M-26.805577320794896,-32.769136497021016 L-26.805577320794896,-23.957110265623157 " />
			<path d="M-26.805577320794896,-32.769136497021016 L37.37679091209429,-28.20197298822624 " />
			<path d="M-32.091184116444595,25.131610965507065 L32.091184116444595,29.69877447430184 " />
			<path d="M-3.6810475898274646,8.6284150933915 L60.501320643061725,13.195578602186274 " />
			<path d="M60.501320643061725,13.195578602186277 L32.091184116444595,29.698774474301846 " />
			<path d="M60.501320643061725,6.34178042221016 L60.501320643061725,13.195578602186274 " />
			<path d="M-3.6810475898274646,1.7746169134153895 L60.501320643061725,6.341780422210164 " />
			<path d="M-25.38978978624587,-13.869400949501776 L-25.38978978624587,14.385032363869145 " />
			<path d="M-25.38978978624587,-13.869400949501776 L-18.782781291683747,-13.399251764772902 " />
			<path d="M22.74698638842102,-10.444028317905694 L22.74698638842102,3.6552136523308842 " />
			<path d="M22.74698638842102,-10.444028317905694 L29.353994882983145,-9.97387913317682 " />
			<path d="M34.07328666481323,-17.470970492628894 L34.07328666481323,-3.068830193256133 " />
			<path d="M-30.109081568075958,-22.038134001423675 L34.07328666481323,-17.4709704926289 " />
			<path d="M34.07328666481323,-17.470970492628897 L37.37679091209429,-19.389946756828383 " />
			<path d="M-26.805577320794896,-23.957110265623157 L37.37679091209429,-19.389946756828383 " />
			<path d="M37.37679091209429,-28.201972988226238 L37.37679091209429,-19.38994675682838 " />
			<path d="M-11.566984157265544,6.355487395525872 L-25.38978978624587,-13.86940094950177 " />
			<path d="M-7.067611372468738,3.741841723686174 L-18.782781291683747,-13.399251764772899 " />
			<path d="M32.875792362463386,4.375970992796293 L22.746986388421014,-10.44402831790569 " />
			<path d="M39.48280085702552,4.846120177525169 L29.353994882983137,-9.973879133176819 " />

       </g>
    </g>
    <g transform="translate(20,210.0)" stroke="rgb(0,0,255)">
        <line x1="30" y1="-30" x2="75" y2="-33" stroke-width="3" stroke="#000000" />
         <text x="80" y="-30" style="stroke:#000000">X </text>

        <line x1="30" y1="-30" x2="30" y2="-75" stroke-width="3" stroke="#000000" />
         <text x="25" y="-85" style="stroke:#000000">Y </text>

        <line x1="30" y1="-30" x2="58" y2="-15" stroke-width="3" stroke="#000000" />
         <text x="65" y="-5" style="stroke:#000000">Z </text>
        <!--
            <line x1="0" y1="0" x2="2.8814794220128888" y2="0" stroke-width="3" />
            <text x="0" y="20" style="stroke:#000000">1  mm </text>
        -->
    </g>
</svg>
