<svg xmlns="http://www.w3.org/2000/svg" width="760" height="420" viewBox="0 0 760 420">
<rect width="760" height="420" fill="#fbfbf7"/>
<text x="28" y="34" font-family="Segoe UI, Arial" font-size="22" font-weight="700" fill="#111827">Compact braced printability run</text>
<text x="28" y="58" font-family="Segoe UI, Arial" font-size="13" fill="#475569">Footprint 3808.0 mm2; stability ratio 0.7; material proxy 77.68</text>
<text x="28" y="78" font-family="Segoe UI, Arial" font-size="13" fill="#475569">Dimensions: W 68 mm x D 56 mm x H 80 mm; lip 10 mm; cable 0 mm; braces yes</text>
<polygon points="320.1,292.8 500.3,292.8 439.9,318.6 259.7,318.6" fill="#dbeafe" stroke="#475569" stroke-width="2"/>
<polygon points="267.2,315.4 447.4,315.4 439.9,166.9 259.7,166.9" fill="#bfdbfe" stroke="#475569" stroke-width="2"/>
<polygon points="299.6,285.3 421.5,285.3 421.5,180.7 299.6,180.7" fill="#1f293326" stroke="#33415599" stroke-width="1"/>
<polygon points="320.1,292.8 500.3,292.8 500.3,272.3 320.1,272.3" fill="#93c5fd" stroke="#475569" stroke-width="2"/>
<polygon points="325.6,300.6 291.1,315.4 291.1,220.2" fill="#60a5fa" stroke="#475569" stroke-width="2"/>
<polygon points="458.1,300.6 423.6,315.4 423.6,220.2" fill="#60a5fa" stroke="#475569" stroke-width="2"/>
<line x1="54" y1="352" x2="214" y2="352" stroke="#94a3b8" stroke-width="2"/>
<text x="54" y="370" font-family="Segoe UI, Arial" font-size="12" fill="#475569">W 68 / D 56 / H 80</text>
<text x="28" y="388" font-family="Segoe UI, Arial" font-size="13" fill="#475569">Included artifacts: CadQuery STEP, CadQuery SVG projection, concept SVG preview, metrics, panel notes</text>
</svg>