<?xml version="1.0" encoding="UTF-8" standalone="no"?>
<svg
   xmlns:svg="http://www.w3.org/2000/svg"
   xmlns="http://www.w3.org/2000/svg"
   width="800.0"
   height="240.0"

>
    <g transform="scale(2.0933892316349154, -2.0933892316349154)   translate(136.1247594227249,-50.627391290242905)" stroke-width="0.4776942504949308"  fill="none">
       <!-- hidden lines -->
       <g  stroke="rgb(160,160,160)" fill="none" stroke-dasharray="0.4776942504949308,0.4776942504949308" >
			<path d="M40.58590932373875,-35.29738772510384 L47.19291781830087,-39.13534025350281 " />
			<path d="M-5.733939514923556,-39.77819730200963 L-0.9438583563660146,-39.437339143081196 " />
			<path d="M-0.9438583563660163,-42.56071288509889 L-5.733939514923556,-39.77819730200964 " />
			<path d="M-40.58590932373875,-41.07350628034428 L40.58590932373875,-35.29738772510383 " />
			<path d="M40.58590932373875,-35.29738772510384 L40.58590932373875,41.07350628034428 " />
			<path d="M-38.27345635064201,26.12119213447721 L42.89836229683549,31.897310689717656 " />
			<path d="M42.89836229683549,31.897310689717656 L74.61200307073368,13.475138553402601 " />
			<path d="M42.89836229683549,11.21842246670402 L42.89836229683549,31.897310689717663 " />
			<path d="M9.367794186932723,-25.97508825981657 L9.863319824024883,-26.262934699446493 " />
			<path d="M9.367794186932723,-26.29819588830116 L9.367794186932723,-25.97508825981657 " />
			<path d="M-5.733939514923556,-39.77819730200963 L-5.733939514923556,-27.049714967768278 " />
			<path d="M-5.733939514923556,-27.049714967768278 L9.367794186932723,-25.975088259816566 " />
			<path d="M-5.733939514923556,-27.049714967768278 L-5.2384138778313964,-27.3375614073982 " />

       </g>

       <!-- solid lines -->
       <g  stroke="rgb(0,0,0)" fill="none">
			<path d="M-40.58590932373875,-41.07350628034428 L-33.978900829176624,-44.911458808743255 " />
			<path d="M-40.58590932373875,-41.07350628034428 L-40.58590932373875,35.29738772510384 " />
			<path d="M-6.559815576743816,15.531932203849149 L-40.58590932373875,35.29738772510384 " />
			<path d="M-6.559815576743816,7.699019998162157 L-6.559815576743816,15.531932203849145 " />
			<path d="M-38.27345635064201,26.12119213447721 L-6.559815576743816,7.699019998162154 " />
			<path d="M-38.27345635064201,-31.646535382464315 L-38.27345635064201,26.12119213447722 " />
			<path d="M-38.27345635064201,-31.646535382464318 L-33.978900829176624,-34.14120452592365 " />
			<path d="M-33.978900829176624,-44.911458808743255 L-33.978900829176624,-34.14120452592365 " />
			<path d="M14.157875345490268,-41.48608617714717 L47.19291781830087,-39.135340253502804 " />
			<path d="M14.157875345490265,-41.48608617714718 L9.367794186932723,-38.70357059405793 " />
			<path d="M-0.9438583563660146,-39.437339143081196 L9.367794186932723,-38.703570594057915 " />
			<path d="M-33.978900829176624,-44.911458808743255 L-0.9438583563660075,-42.56071288509889 " />
			<path d="M-40.58590932373875,35.29738772510384 L40.58590932373875,41.07350628034429 " />
			<path d="M-6.559815576743816,15.531932203849149 L74.61200307073368,21.308050759089596 " />
			<path d="M74.61200307073368,21.308050759089593 L40.58590932373875,41.07350628034428 " />
			<path d="M74.61200307073368,13.475138553402605 L74.61200307073368,21.308050759089593 " />
			<path d="M-6.559815576743816,7.699019998162157 L74.61200307073368,13.475138553402607 " />
			<path d="M42.89836229683549,-25.87041682722387 L42.89836229683549,11.21842246670402 " />
			<path d="M9.863319824024884,-28.22116275086824 L42.89836229683549,-25.87041682722387 " />
			<path d="M9.863319824024883,-28.22116275086824 L9.863319824024883,-26.26293469944649 " />
			<path d="M9.863319824024884,-26.262934699446493 L-5.238413877831395,-27.337561407398205 " />
			<path d="M-5.2384138778313964,-29.295789458819947 L-5.2384138778313964,-27.337561407398198 " />
			<path d="M-38.27345635064201,-31.646535382464318 L-5.238413877831391,-29.29578945881995 " />
			<path d="M-0.9438583563660163,-31.790458602279276 L-5.2384138778313964,-29.295789458819947 " />
			<path d="M-33.978900829176624,-34.14120452592365 L-0.9438583563660075,-31.79045860227928 " />
			<path d="M-0.9438583563660163,-42.56071288509889 L-0.9438583563660163,-31.79045860227928 " />
			<path d="M42.89836229683549,-25.870416827223867 L47.19291781830087,-28.365085970683197 " />
			<path d="M47.19291781830087,-39.13534025350281 L47.19291781830087,-28.365085970683204 " />
			<path d="M14.157875345490268,-30.715831894327568 L47.19291781830087,-28.365085970683197 " />
			<path d="M14.157875345490263,-41.48608617714718 L14.157875345490263,-30.71583189432757 " />
			<path d="M14.157875345490261,-30.715831894327568 L9.863319824024881,-28.22116275086824 " />
			<path d="M9.367794186932723,-38.70357059405792 L9.367794186932723,-26.29819588830116 " />

       </g>
    </g>
    <g transform="translate(20,210.0)" stroke="rgb(0,0,255)">
        <line x1="30" y1="-30" x2="75" y2="-33" stroke-width="3" stroke="#000000" />
         <text x="80" y="-30" style="stroke:#000000">X </text>

        <line x1="30" y1="-30" x2="30" y2="-75" stroke-width="3" stroke="#000000" />
         <text x="25" y="-85" style="stroke:#000000">Y </text>

        <line x1="30" y1="-30" x2="58" y2="-15" stroke-width="3" stroke="#000000" />
         <text x="65" y="-5" style="stroke:#000000">Z </text>
        <!--
            <line x1="0" y1="0" x2="2.0933892316349154" y2="0" stroke-width="3" />
            <text x="0" y="20" style="stroke:#000000">1  mm </text>
        -->
    </g>
</svg>
