<?xml version="1.0" encoding="UTF-8" standalone="no"?>
<svg
   xmlns:svg="http://www.w3.org/2000/svg"
   xmlns="http://www.w3.org/2000/svg"
   width="800.0"
   height="240.0"

>
    <g transform="scale(2.265352605955113, -2.265352605955113)   translate(126.98466928322281,-46.830483531939315)" stroke-width="0.4414323833610805"  fill="none">
       <!-- hidden lines -->
       <g  stroke="rgb(160,160,160)" fill="none" stroke-dasharray="0.4414323833610805,0.4414323833610805" >
			<path d="M38.69819261100672,-32.49437398646518 L44.64450025611263,-35.94853126202425 " />
			<path d="M-6.064289939651664,-36.648957598457066 L-1.6045592058222269,-36.33160689876508 " />
			<path d="M-1.6045592058222287,-39.239575555126365 L-6.064289939651662,-36.64895759845706 " />
			<path d="M-38.69819261100672,-38.001835864717705 L38.69819261100672,-32.494373986465185 " />
			<path d="M38.69819261100672,-32.49437398646518 L38.69819261100672,38.001835864717705 " />
			<path d="M-36.71609006263808,24.489190047969377 L-31.996798280807994,24.825010894204286 " />
			<path d="M-31.996798280807994,24.825010894204286 L-13.986093124631648,14.362752301788696 " />
			<path d="M-13.986093124631648,14.362752301788698 L-7.379084630069525,14.83290148651757 " />
			<path d="M-25.38978978624587,25.29516007893316 L-7.379084630069524,14.83290148651757 " />
			<path d="M-25.38978978624587,25.29516007893316 L29.35399488298315,29.190681895258116 " />
			<path d="M29.353994882983145,29.190681895258113 L47.36470003915949,18.728423302842522 " />
			<path d="M47.36470003915949,18.728423302842522 L53.97170853372161,19.198572487571397 " />
			<path d="M35.96100337754527,29.660831079986988 L53.97170853372161,19.198572487571397 " />
			<path d="M35.96100337754526,29.660831079986988 L40.680295159375355,29.9966519262219 " />
			<path d="M40.680295159375355,29.996651926221897 L71.73323508381733,11.958275042746742 " />
			<path d="M-31.996798280807994,21.747795384827253 L-31.996798280807994,24.825010894204286 " />
			<path d="M-25.38978978624587,-20.723199129477887 L-25.38978978624587,25.29516007893316 " />
			<path d="M29.353994882983145,8.94260384355725 L29.353994882983145,29.190681895258116 " />
			<path d="M35.96100337754527,-16.35752812842406 L35.96100337754527,29.660831079986988 " />
			<path d="M40.680295159375355,-7.040868287737688 L40.680295159375355,29.9966519262219 " />
			<path d="M9.037443762204617,-23.824962581974873 L9.532969399296777,-24.112809021604797 " />
			<path d="M9.037443762204617,-24.14807021045946 L9.037443762204617,-23.82496258197488 " />
			<path d="M-6.064289939651662,-36.648957598457066 L-6.064289939651662,-24.89958928992659 " />
			<path d="M-6.064289939651662,-24.89958928992658 L9.037443762204617,-23.82496258197487 " />
			<path d="M-6.064289939651662,-24.89958928992658 L-5.568764302559503,-25.187435729556505 " />
			<path d="M-13.986093124631648,14.362752301788698 L-15.190456387354686,11.985140710445535 " />
			<path d="M-7.379084630069524,14.832901486517573 L-10.269556460604816,9.126633667293985 " />
			<path d="M47.36470003915949,18.728423302842522 L42.89587845905558,9.906232924437635 " />
			<path d="M53.97170853372161,19.198572487571397 L49.502886953617704,10.37638210916651 " />

       </g>

       <!-- solid lines -->
       <g  stroke="rgb(0,0,0)" fill="none">
			<path d="M-38.69819261100672,-38.001835864717705 L-32.75188496590081,-41.455993140276775 " />
			<path d="M-38.69819261100672,-38.001835864717705 L-38.69819261100672,32.49437398646518 " />
			<path d="M-5.663150138196102,13.304611344470331 L-38.69819261100672,32.49437398646518 " />
			<path d="M-5.663150138196102,6.450813164494221 L-5.663150138196102,13.304611344470334 " />
			<path d="M-36.71609006263808,24.489190047969377 L-5.663150138196102,6.450813164494221 " />
			<path d="M-36.71609006263808,-29.36208136612866 L-36.71609006263808,24.489190047969373 " />
			<path d="M-36.71609006263808,-29.36208136612866 L-32.75188496590081,-31.66485288316804 " />
			<path d="M-32.75188496590081,-41.455993140276775 L-32.75188496590081,-31.66485288316804 " />
			<path d="M13.497174496034049,-38.16494884717466 L44.64450025611263,-35.948531262024254 " />
			<path d="M13.497174496034049,-38.16494884717466 L9.037443762204617,-35.57433089050535 " />
			<path d="M-1.6045592058222269,-36.33160689876508 L9.037443762204617,-35.57433089050536 " />
			<path d="M-32.75188496590081,-41.455993140276775 L-1.6045592058222304,-39.23957555512637 " />
			<path d="M-38.69819261100672,32.49437398646518 L38.69819261100672,38.0018358647177 " />
			<path d="M-5.663150138196102,13.304611344470331 L71.73323508381733,18.81207322272285 " />
			<path d="M71.73323508381733,18.81207322272286 L38.69819261100672,38.001835864717705 " />
			<path d="M71.73323508381733,11.958275042746742 L71.73323508381733,18.812073222722855 " />
			<path d="M-5.663150138196102,6.450813164494221 L71.73323508381733,11.958275042746743 " />
			<path d="M-31.996798280807994,-21.193348314206762 L-31.996798280807994,21.747795384827253 " />
			<path d="M-31.996798280807994,-21.193348314206762 L-25.38978978624587,-20.723199129477887 " />
			<path d="M29.353994882983145,-16.827677313152932 L29.353994882983145,8.94260384355725 " />
			<path d="M29.353994882983145,-16.827677313152932 L35.96100337754527,-16.357528128424057 " />
			<path d="M40.680295159375355,-23.854619487876132 L40.680295159375355,-7.040868287737688 " />
			<path d="M9.532969399296775,-26.071037073026545 L40.680295159375355,-23.854619487876136 " />
			<path d="M9.532969399296777,-26.071037073026538 L9.532969399296777,-24.11280902160479 " />
			<path d="M9.532969399296778,-24.112809021604797 L-5.568764302559503,-25.18743572955651 " />
			<path d="M-5.568764302559503,-27.145663780978246 L-5.568764302559503,-25.187435729556498 " />
			<path d="M-36.71609006263808,-29.36208136612866 L-5.568764302559504,-27.145663780978253 " />
			<path d="M-1.6045592058222287,-29.448435298017635 L-5.568764302559503,-27.145663780978253 " />
			<path d="M-32.75188496590081,-31.66485288316804 L-1.6045592058222304,-29.448435298017635 " />
			<path d="M-1.6045592058222287,-39.239575555126365 L-1.6045592058222287,-29.44843529801763 " />
			<path d="M40.680295159375355,-23.85461948787614 L44.64450025611263,-26.15739100491552 " />
			<path d="M44.64450025611263,-35.94853126202425 L44.64450025611263,-26.157391004915514 " />
			<path d="M13.497174496034049,-28.373808590065927 L44.64450025611263,-26.157391004915517 " />
			<path d="M13.49717449603405,-38.16494884717466 L13.49717449603405,-28.37380859006592 " />
			<path d="M13.497174496034049,-28.373808590065927 L9.532969399296775,-26.071037073026545 " />
			<path d="M9.037443762204617,-35.57433089050536 L9.037443762204617,-24.14807021045946 " />
			<path d="M-15.190456387354686,11.985140710445535 L-31.996798280807997,-21.193348314206766 " />
			<path d="M-10.269556460604816,9.126633667293985 L-25.389789786245874,-20.72319912947789 " />
			<path d="M42.89587845905558,9.906232924437635 L29.353994882983137,-16.82767731315294 " />
			<path d="M49.502886953617704,10.37638210916651 L35.96100337754526,-16.357528128424065 " />

       </g>
    </g>
    <g transform="translate(20,210.0)" stroke="rgb(0,0,255)">
        <line x1="30" y1="-30" x2="75" y2="-33" stroke-width="3" stroke="#000000" />
         <text x="80" y="-30" style="stroke:#000000">X </text>

        <line x1="30" y1="-30" x2="30" y2="-75" stroke-width="3" stroke="#000000" />
         <text x="25" y="-85" style="stroke:#000000">Y </text>

        <line x1="30" y1="-30" x2="58" y2="-15" stroke-width="3" stroke="#000000" />
         <text x="65" y="-5" style="stroke:#000000">Z </text>
        <!--
            <line x1="0" y1="0" x2="2.265352605955113" y2="0" stroke-width="3" />
            <text x="0" y="20" style="stroke:#000000">1  mm </text>
        -->
    </g>
</svg>
