<svg xmlns="http://www.w3.org/2000/svg" width="760" height="420" viewBox="0 0 760 420">
<rect width="760" height="420" fill="#fbfbf7"/>
<text x="28" y="34" font-family="Segoe UI, Arial" font-size="22" font-weight="700" fill="#111827">Braced lightweight synthesis</text>
<text x="28" y="58" font-family="Segoe UI, Arial" font-size="13" fill="#475569">Footprint 5904.0 mm2; stability ratio 0.766; material proxy 135.32</text>
<g transform="translate(350 270)">
<polygon points="-180,45 105,45 180,-8 -105,-8" fill="#dbeafe" stroke="#475569" stroke-width="2"/>
<polygon points="-105,-8 180,-8 180,-160 -105,-160" fill="#bfdbfe" stroke="#475569" stroke-width="2"/>
<rect x="-52" y="-128" width="104" height="108" rx="10" fill="#334155" opacity="0.16" stroke="#334155"/>
<polygon points="-180,45 105,45 118,14 -166,14" fill="#93c5fd" stroke="#475569" stroke-width="2"/>
<path d="M -12 58 C -6 42, -4 28, 0 14 C 4 2, 9 -8, 18 -20" fill="none" stroke="#2563eb" stroke-width="5" stroke-linecap="round"/>
<polygon points="-150,32 -118,32 -118,-105" fill="#60a5fa" stroke="#475569" stroke-width="2"/>
<polygon points="118,32 150,32 150,-105" fill="#60a5fa" stroke="#475569" stroke-width="2"/>
</g>
<text x="28" y="388" font-family="Segoe UI, Arial" font-size="13" fill="#475569">Included artifacts: CadQuery STEP, CadQuery SVG projection, concept SVG preview, metrics, panel notes</text>
</svg>