<?xml version="1.0" encoding="UTF-8" standalone="no"?>
<svg
   xmlns:svg="http://www.w3.org/2000/svg"
   xmlns="http://www.w3.org/2000/svg"
   width="800.0"
   height="240.0"

>
    <g transform="scale(2.207224394199299, -2.207224394199299)   translate(130.2535902950507,-48.10926799244335)" stroke-width="0.4530576966383899"  fill="none">
       <!-- hidden lines -->
       <g  stroke="rgb(160,160,160)" fill="none" stroke-dasharray="0.4530576966383899,0.4530576966383899" >
			<path d="M39.64205096737273,-33.40632384292907 L45.58835861247864,-36.86048111848814 " />
			<path d="M-5.120431583285644,-37.56090745492096 L-0.6607008494562123,-37.243556755228965 " />
			<path d="M-0.6607008494562114,-40.15152541159026 L-5.120431583285645,-37.56090745492095 " />
			<path d="M-39.64205096737273,-39.048114059675555 L39.64205096737273,-33.40632384292907 " />
			<path d="M39.64205096737273,-33.40632384292907 L39.64205096737273,39.048114059675555 " />
			<path d="M-37.659948419004095,25.40113990443327 L-32.94065663717401,25.736960750668178 " />
			<path d="M-32.94065663717401,25.736960750668178 L-14.929951480997662,15.274702158252587 " />
			<path d="M-14.929951480997662,15.27470215825259 L-8.322942986435539,15.744851342981462 " />
			<path d="M-26.333648142611885,26.207109935397053 L-8.322942986435539,15.744851342981462 " />
			<path d="M-26.333648142611885,26.207109935397053 L30.297853239349152,30.23696009021597 " />
			<path d="M30.29785323934916,30.23696009021597 L48.30855839552551,19.77470149780038 " />
			<path d="M48.30855839552551,19.77470149780038 L54.91556689008763,20.244850682529254 " />
			<path d="M36.90486173391128,30.707109274944845 L54.91556689008763,20.244850682529254 " />
			<path d="M36.904861733911275,30.707109274944845 L41.62415351574137,31.042930121179754 " />
			<path d="M41.62415351574137,31.042930121179754 L72.67709344018334,13.004553237704599 " />
			<path d="M-32.94065663717401,22.659745241291144 L-32.94065663717401,25.736960750668178 " />
			<path d="M-26.333648142611885,-21.769477324435744 L-26.333648142611885,26.207109935397053 " />
			<path d="M30.29785323934916,9.988882038515108 L30.29785323934916,30.23696009021597 " />
			<path d="M36.90486173391128,-17.269477984887953 L36.90486173391128,30.707109274944845 " />
			<path d="M41.62415351574137,-7.439709441911013 L41.62415351574137,31.042930121179758 " />
			<path d="M8.0935854058386,-24.871240776932726 L8.589111042930758,-25.15908721656265 " />
			<path d="M8.0935854058386,-25.194348405417315 L8.0935854058386,-24.87124077693273 " />
			<path d="M-5.120431583285645,-37.56090745492096 L-5.120431583285645,-25.81153914639048 " />
			<path d="M-5.120431583285645,-25.811539146390476 L8.0935854058386,-24.87124077693273 " />
			<path d="M-5.120431583285645,-25.811539146390476 L-4.624905946193485,-26.0993855860204 " />
			<path d="M-14.929951480997662,15.27470215825259 L-16.085157059527923,12.86853530494886 " />
			<path d="M-8.322942986435539,15.744851342981464 L-11.095436374908166,9.970050895052518 " />
			<path d="M48.30855839552551,19.77470149780038 L44.08125818408494,10.969697577482405 " />
			<path d="M54.91556689008763,20.244850682529254 L50.68826667864706,11.439846762211278 " />

       </g>

       <!-- solid lines -->
       <g  stroke="rgb(0,0,0)" fill="none">
			<path d="M-39.64205096737273,-39.048114059675555 L-33.69574332226682,-42.502271335234624 " />
			<path d="M-39.64205096737273,-39.048114059675555 L-39.64205096737273,33.40632384292907 " />
			<path d="M-6.607008494562116,14.216561200934223 L-39.64205096737273,33.40632384292907 " />
			<path d="M-6.607008494562116,7.362763020958113 L-6.607008494562116,14.216561200934226 " />
			<path d="M-37.659948419004095,25.40113990443327 L-6.607008494562116,7.362763020958113 " />
			<path d="M-37.659948419004095,-30.40835956108651 L-37.659948419004095,25.401139904433272 " />
			<path d="M-37.659948419004095,-30.408359561086513 L-33.69574332226682,-32.711131078125895 " />
			<path d="M-33.69574332226682,-42.502271335234624 L-33.69574332226682,-32.71113107812589 " />
			<path d="M12.553316139668034,-39.211227042132506 L45.58835861247864,-36.86048111848814 " />
			<path d="M12.553316139668034,-39.211227042132506 L8.0935854058386,-36.6206090854632 " />
			<path d="M-0.6607008494562123,-37.243556755228965 L8.0935854058386,-36.62060908546321 " />
			<path d="M-33.69574332226682,-42.502271335234624 L-0.6607008494562052,-40.15152541159026 " />
			<path d="M-39.64205096737273,33.40632384292907 L39.64205096737273,39.048114059675555 " />
			<path d="M-6.607008494562116,14.216561200934223 L72.67709344018334,19.85835141768071 " />
			<path d="M72.67709344018334,19.85835141768071 L39.642050967372725,39.048114059675555 " />
			<path d="M72.67709344018334,13.004553237704599 L72.67709344018334,19.858351417680712 " />
			<path d="M-6.607008494562116,7.362763020958113 L72.67709344018334,13.004553237704599 " />
			<path d="M-32.94065663717401,-22.23962650916462 L-32.94065663717401,22.659745241291144 " />
			<path d="M-32.94065663717401,-22.23962650916462 L-26.333648142611885,-21.769477324435744 " />
			<path d="M30.29785323934916,-17.739627169616828 L30.29785323934916,9.988882038515108 " />
			<path d="M30.29785323934916,-17.739627169616828 L36.90486173391128,-17.269477984887953 " />
			<path d="M41.62415351574137,-24.766569344340024 L41.62415351574137,-7.439709441911013 " />
			<path d="M8.58911104293076,-27.117315267984395 L41.62415351574137,-24.766569344340027 " />
			<path d="M8.58911104293076,-27.117315267984395 L8.58911104293076,-25.159087216562646 " />
			<path d="M8.58911104293076,-25.159087216562654 L-4.624905946193483,-26.0993855860204 " />
			<path d="M-4.624905946193485,-28.057613637442145 L-4.624905946193485,-26.099385586020396 " />
			<path d="M-37.659948419004095,-30.408359561086513 L-4.624905946193479,-28.057613637442145 " />
			<path d="M-0.6607008494562114,-30.360385154481527 L-4.624905946193485,-28.057613637442145 " />
			<path d="M-33.69574332226682,-32.711131078125895 L-0.6607008494562052,-30.360385154481527 " />
			<path d="M-0.6607008494562114,-40.151525411590264 L-0.6607008494562114,-30.360385154481527 " />
			<path d="M41.62415351574137,-24.766569344340027 L45.58835861247864,-27.06934086137941 " />
			<path d="M45.58835861247864,-36.86048111848814 L45.58835861247864,-27.069340861379406 " />
			<path d="M12.553316139668034,-29.420086785023777 L45.58835861247864,-27.06934086137941 " />
			<path d="M12.553316139668034,-39.21122704213251 L12.553316139668034,-29.420086785023777 " />
			<path d="M12.553316139668034,-29.420086785023777 L8.58911104293076,-27.117315267984395 " />
			<path d="M8.0935854058386,-36.62060908546321 L8.0935854058386,-25.194348405417315 " />
			<path d="M-16.085157059527923,12.86853530494886 L-32.94065663717401,-22.239626509164616 " />
			<path d="M-11.095436374908166,9.970050895052518 L-26.333648142611885,-21.76947732443574 " />
			<path d="M44.08125818408494,10.969697577482405 L30.297853239349163,-17.739627169616824 " />
			<path d="M50.68826667864706,11.439846762211278 L36.90486173391129,-17.26947798488795 " />

       </g>
    </g>
    <g transform="translate(20,210.0)" stroke="rgb(0,0,255)">
        <line x1="30" y1="-30" x2="75" y2="-33" stroke-width="3" stroke="#000000" />
         <text x="80" y="-30" style="stroke:#000000">X </text>

        <line x1="30" y1="-30" x2="30" y2="-75" stroke-width="3" stroke="#000000" />
         <text x="25" y="-85" style="stroke:#000000">Y </text>

        <line x1="30" y1="-30" x2="58" y2="-15" stroke-width="3" stroke="#000000" />
         <text x="65" y="-5" style="stroke:#000000">Z </text>
        <!--
            <line x1="0" y1="0" x2="2.207224394199299" y2="0" stroke-width="3" />
            <text x="0" y="20" style="stroke:#000000">1  mm </text>
        -->
    </g>
</svg>
